<svg width="59" height="153" viewBox="0 0 59 153" fill="none" xmlns="http://www.w3.org/2000/svg">
<path d="M47.1305 2.88392C47.403 3.0122 47.4393 4.05376 47.1841 5.74718C46.9287 7.44019 46.3697 9.78322 45.4206 12.3885C44.6415 14.5254 43.5973 16.8302 42.3014 19.0613C41.187 20.9802 39.9952 22.6603 38.833 24.0541C37.6706 25.4481 36.5388 26.5576 35.5447 27.382C34.5504 28.2064 33.6946 28.7482 33.0675 29.0268C32.4404 29.3058 32.0428 29.325 31.9376 29.085C31.8325 28.8452 32.0277 28.3691 32.447 27.6973C32.8661 27.025 33.5086 26.1538 34.2901 25.0912C35.0716 24.0287 35.9921 22.7734 36.9714 21.3364C37.9506 19.9001 38.9878 18.2815 40.0141 16.5146C41.2077 14.4597 42.2543 12.4298 43.1412 10.579C44.2241 8.32023 45.0754 6.33225 45.7313 4.94026C46.3872 3.54841 46.858 2.75535 47.1305 2.88362L47.1305 2.88392Z" fill="#B72467"/>
<path d="M47.347 3.89457C47.6296 3.89102 47.8863 4.79416 48.1785 6.30956C48.4708 7.82453 48.8088 9.95432 49.3001 12.421C49.7025 14.4419 50.2124 16.6887 50.8532 19.0181C51.4042 21.0207 51.9992 22.895 52.5819 24.5829C53.1645 26.2707 53.7335 27.7718 54.2179 29.0436C54.702 30.3153 55.1004 31.3585 55.3367 32.1323C55.5733 32.9058 55.6462 33.4118 55.4937 33.5841C55.3409 33.7561 54.976 33.5765 54.4567 33.0701C53.9375 32.5638 53.2655 31.7289 52.5291 30.5837C51.7929 29.4386 50.9942 27.9818 50.2316 26.2574C49.469 24.5328 48.7445 22.5406 48.1464 20.3654C47.4506 17.8363 47.0056 15.3442 46.7688 13.1109C46.4808 10.3884 46.4956 8.06007 46.6442 6.43836C46.7932 4.81679 47.0645 3.89821 47.3471 3.89466L47.347 3.89457Z" fill="#B72467"/>
<path d="M33.7394 29.4632C33.6523 29.0079 34.1224 28.2614 35.0571 27.4734C35.9916 26.6862 37.3964 25.8751 39.1356 25.4172C40.5624 25.0425 42.2118 24.9147 43.963 25.1774C45.4689 25.4029 46.9043 25.8938 48.1893 26.5356C49.4743 27.1778 50.6092 27.969 51.5351 28.7643C52.4613 29.5603 53.1795 30.3575 53.65 31.0208C54.1209 31.6837 54.3451 32.21 54.2893 32.5132C54.2334 32.8164 53.9039 32.8706 53.3607 32.7519C52.8176 32.6339 52.0601 32.3465 51.1371 31.9989C50.2143 31.6507 49.1253 31.2436 47.9195 30.878C46.7137 30.5128 45.3908 30.1907 44.004 29.9827C42.3911 29.7404 40.8697 29.6809 39.519 29.7181C37.8702 29.7628 36.4742 29.9398 35.4646 29.9826C34.4547 30.0256 33.8269 29.9183 33.7396 29.4632L33.7394 29.4632Z" fill="#B72467"/>
<path d="M39.5279 37.5466C41.9772 29.7891 45.2508 16.9322 38.6424 72.0208C32.0339 127.109 33.4363 129.599 27.9869 143.88C22.5375 158.163 15.2335 152.456 11.1896 148.184C7.14576 143.912 -2.83345 137.212 1.25123 133.547C5.3359 129.882 17.7992 162.971 25.4826 138.929C33.166 114.888 31.8897 102.485 33.4082 88.304C34.9269 74.1248 37.0783 45.3049 39.5275 37.5438L39.5279 37.5466Z" fill="#B72467"/>
</svg>
